0
SECTION
2
HEADER
9
$ACADVER
1
AC1006
9
$EXTMIN
10
 -750.50
20
 -751.00
9
$EXTMAX
10
  749.50
20
  749.00
9
$ANGDIR
70
0
9
$LUNITS
70
2
0
ENDSEC
0
SECTION
2
TABLES
0
TABLE
2
LTYPE
70
3
0
LTYPE
2
CONTINUOUS
70
64
3
SOLID LINE
72
65
73
0
40
0.
0
LTYPE
2
DASHED
70
64
3
DASHED LINE
72
65
73
2
40
8.
49
5.
49
-3.
0
LTYPE
2
DOTTED
70
64
3
DOTTED LINE
72
65
73
2
40
4.
49
2.
49
-2.
0
ENDTAB
0
TABLE
2
LAYER
70
120
0
LAYER
2
C1
70
64
62
2
6
CONTINUOUS
0
LAYER
2
C2
70
64
62
2
6
CONTINUOUS
0
LAYER
2
C3
70
64
62
2
6
CONTINUOUS
0
LAYER
2
C4
70
64
62
2
6
CONTINUOUS
0
LAYER
2
C5
70
64
62
2
6
CONTINUOUS
0
LAYER
2
C6
70
64
62
2
6
CONTINUOUS
0
LAYER
2
C7
70
64
62
2
6
CONTINUOUS
0
LAYER
2
C8
70
64
62
2
6
CONTINUOUS
0
LAYER
2
C9
70
64
62
2
6
CONTINUOUS
0
LAYER
2
C10
70
64
62
2
6
CONTINUOUS
0
LAYER
2
F1
70
64
62
3
6
CONTINUOUS
0
LAYER
2
F2
70
64
62
3
6
CONTINUOUS
0
LAYER
2
F3
70
64
62
3
6
CONTINUOUS
0
LAYER
2
F4
70
64
62
3
6
CONTINUOUS
0
LAYER
2
F5
70
64
62
3
6
CONTINUOUS
0
LAYER
2
F6
70
64
62
3
6
CONTINUOUS
0
LAYER
2
F7
70
64
62
3
6
CONTINUOUS
0
LAYER
2
F8
70
64
62
3
6
CONTINUOUS
0
LAYER
2
F9
70
64
62
3
6
CONTINUOUS
0
LAYER
2
F10
70
64
62
3
6
CONTINUOUS
0
LAYER
2
R1
70
64
62
4
6
CONTINUOUS
0
LAYER
2
R2
70
64
62
4
6
CONTINUOUS
0
LAYER
2
R3
70
64
62
4
6
CONTINUOUS
0
LAYER
2
R4
70
64
62
4
6
CONTINUOUS
0
LAYER
2
R5
70
64
62
4
6
CONTINUOUS
0
LAYER
2
R6
70
64
62
4
6
CONTINUOUS
0
LAYER
2
R7
70
64
62
4
6
CONTINUOUS
0
LAYER
2
R8
70
64
62
4
6
CONTINUOUS
0
LAYER
2
R9
70
64
62
4
6
CONTINUOUS
0
LAYER
2
R10
70
64
62
4
6
CONTINUOUS
0
LAYER
2
W1
70
64
62
5
6
CONTINUOUS
0
LAYER
2
W2
70
64
62
5
6
CONTINUOUS
0
LAYER
2
W3
70
64
62
5
6
CONTINUOUS
0
LAYER
2
W4
70
64
62
5
6
CONTINUOUS
0
LAYER
2
W5
70
64
62
5
6
CONTINUOUS
0
LAYER
2
W6
70
64
62
5
6
CONTINUOUS
0
LAYER
2
W7
70
64
62
5
6
CONTINUOUS
0
LAYER
2
W8
70
64
62
5
6
CONTINUOUS
0
LAYER
2
W9
70
64
62
5
6
CONTINUOUS
0
LAYER
2
W10
70
64
62
5
6
CONTINUOUS
0
LAYER
2
S1
70
64
62
6
6
CONTINUOUS
0
LAYER
2
S2
70
64
62
6
6
CONTINUOUS
0
LAYER
2
S3
70
64
62
6
6
CONTINUOUS
0
LAYER
2
S4
70
64
62
6
6
CONTINUOUS
0
LAYER
2
S5
70
64
62
6
6
CONTINUOUS
0
LAYER
2
S6
70
64
62
6
6
CONTINUOUS
0
LAYER
2
S7
70
64
62
6
6
CONTINUOUS
0
LAYER
2
S8
70
64
62
6
6
CONTINUOUS
0
LAYER
2
S9
70
64
62
6
6
CONTINUOUS
0
LAYER
2
S10
70
64
62
6
6
CONTINUOUS
0
LAYER
2
RT1
70
64
62
7
6
CONTINUOUS
0
LAYER
2
RT2
70
64
62
7
6
CONTINUOUS
0
LAYER
2
RT3
70
64
62
7
6
CONTINUOUS
0
LAYER
2
RT4
70
64
62
7
6
CONTINUOUS
0
LAYER
2
RT5
70
64
62
7
6
CONTINUOUS
0
LAYER
2
RT6
70
64
62
7
6
CONTINUOUS
0
LAYER
2
RT7
70
64
62
7
6
CONTINUOUS
0
LAYER
2
RT8
70
64
62
7
6
CONTINUOUS
0
LAYER
2
RT9
70
64
62
7
6
CONTINUOUS
0
LAYER
2
RT10
70
64
62
7
6
CONTINUOUS
0
LAYER
2
FT1
70
64
62
8
6
CONTINUOUS
0
LAYER
2
FT2
70
64
62
8
6
CONTINUOUS
0
LAYER
2
FT3
70
64
62
8
6
CONTINUOUS
0
LAYER
2
FT4
70
64
62
8
6
CONTINUOUS
0
LAYER
2
FT5
70
64
62
8
6
CONTINUOUS
0
LAYER
2
FT6
70
64
62
8
6
CONTINUOUS
0
LAYER
2
FT7
70
64
62
8
6
CONTINUOUS
0
LAYER
2
FT8
70
64
62
8
6
CONTINUOUS
0
LAYER
2
FT9
70
64
62
8
6
CONTINUOUS
0
LAYER
2
FT10
70
64
62
8
6
CONTINUOUS
0
LAYER
2
n1
70
64
62
9
6
CONTINUOUS
0
LAYER
2
n2
70
64
62
9
6
CONTINUOUS
0
LAYER
2
n3
70
64
62
9
6
CONTINUOUS
0
LAYER
2
n4
70
64
62
9
6
CONTINUOUS
0
LAYER
2
n5
70
64
62
9
6
CONTINUOUS
0
LAYER
2
n6
70
64
62
9
6
CONTINUOUS
0
LAYER
2
n7
70
64
62
9
6
CONTINUOUS
0
LAYER
2
n8
70
64
62
9
6
CONTINUOUS
0
LAYER
2
n9
70
64
62
9
6
CONTINUOUS
0
LAYER
2
n10
70
64
62
9
6
CONTINUOUS
0
ENDTAB
0
ENDSEC
0
SECTION
2
ENTITIES
0
3DFACE
8
W1
10
   -44.50
20
  -201.00
30
    -0.00
11
   -44.50
21
   201.00
31
    -0.00
12
    45.50
22
   201.00
32
    -0.00
13
    45.50
23
  -201.00
33
    -0.00
999
W3
0
3DFACE
8
W1
10
   -44.50
20
  -201.00
30
    38.00
11
   -44.50
21
   201.00
31
    38.00
12
   -44.50
22
   201.00
32
    -0.00
13
   -44.50
23
  -201.00
33
    -0.00
999
W3
0
3DFACE
8
W1
10
    45.50
20
   201.00
30
    38.00
11
    45.50
21
  -201.00
31
    38.00
12
    45.50
22
  -201.00
32
    -0.00
13
    45.50
23
   201.00
33
    -0.00
999
W3
0
3DFACE
8
W1
10
   -44.50
20
   749.00
30
   300.00
11
   -44.50
21
   749.00
31
   440.00
12
    45.50
22
   749.00
32
   440.00
13
    45.50
23
   749.00
33
   300.00
999
W3
0
3DFACE
8
W1
10
   -44.50
20
   711.00
30
   300.00
11
   -44.50
21
   711.00
31
   440.00
12
   -44.50
22
   749.00
32
   440.00
13
   -44.50
23
   749.00
33
   300.00
999
W3
0
3DFACE
8
W1
10
    45.50
20
   711.00
30
   440.00
11
    45.50
21
   711.00
31
   300.00
12
    45.50
22
   749.00
32
   300.00
13
    45.50
23
   749.00
33
   440.00
999
W3
0
3DFACE
8
W1
10
   -44.50
20
  -751.00
30
   440.00
11
   -44.50
21
  -751.00
31
   300.00
12
    45.50
22
  -751.00
32
   300.00
13
    45.50
23
  -751.00
33
   440.00
999
W3
0
3DFACE
8
W1
10
   -44.50
20
  -713.00
30
   440.00
11
   -44.50
21
  -713.00
31
   300.00
12
   -44.50
22
  -751.00
32
   300.00
13
   -44.50
23
  -751.00
33
   440.00
999
W3
0
3DFACE
8
W1
10
    45.50
20
  -713.00
30
   300.00
11
    45.50
21
  -713.00
31
   440.00
12
    45.50
22
  -751.00
32
   440.00
13
    45.50
23
  -751.00
33
   300.00
999
W3
0
3DFACE
8
W1
10
   -44.50
20
    -1.00
30
    -0.00
11
   -44.50
21
    -1.00
31
   698.00
12
    45.50
22
    -1.00
32
   698.00
13
    45.50
23
    -1.00
33
    -0.00
999
W3
0
3DFACE
8
W1
10
   -44.50
20
   -39.00
30
    -0.00
11
   -44.50
21
   -39.00
31
   698.00
12
   -44.50
22
    -1.00
32
   698.00
13
   -44.50
23
    -1.00
33
    -0.00
999
W3
0
3DFACE
8
W1
10
    45.50
20
   -39.00
30
   698.00
11
    45.50
21
   -39.00
31
    -0.00
12
    45.50
22
    -1.00
32
    -0.00
13
    45.50
23
    -1.00
33
   698.00
999
W3
0
3DFACE
8
W1
10
   -44.50
20
     1.00
30
   300.00
11
   -44.50
21
   749.00
31
   300.00
12
    45.50
22
   749.00
32
   300.00
13
    45.50
23
     1.00
33
   300.00
999
W3
0
3DFACE
8
W1
10
   -44.50
20
     1.00
30
   338.00
11
   -44.50
21
   749.00
31
   338.00
12
   -44.50
22
   749.00
32
   300.00
13
   -44.50
23
     1.00
33
   300.00
999
W3
0
3DFACE
8
W1
10
    45.50
20
   749.00
30
   338.00
11
    45.50
21
     1.00
31
   338.00
12
    45.50
22
     1.00
32
   300.00
13
    45.50
23
   749.00
33
   300.00
999
W3
0
3DFACE
8
W1
10
   -44.50
20
   201.00
30
   298.00
11
   -44.50
21
     1.00
31
   298.00
12
    45.50
22
     1.00
32
   298.00
13
    45.50
23
   201.00
33
   298.00
999
W3
0
3DFACE
8
W1
10
   -44.50
20
   201.00
30
   260.00
11
   -44.50
21
     1.00
31
   260.00
12
   -44.50
22
     1.00
32
   298.00
13
   -44.50
23
   201.00
33
   298.00
999
W3
0
3DFACE
8
W1
10
    45.50
20
     1.00
30
   260.00
11
    45.50
21
   201.00
31
   260.00
12
    45.50
22
   201.00
32
   298.00
13
    45.50
23
     1.00
33
   298.00
999
W3
0
3DFACE
8
W1
10
   -44.50
20
  -751.00
30
   300.00
11
   -44.50
21
    -1.00
31
   300.00
12
    45.50
22
    -1.00
32
   300.00
13
    45.50
23
  -751.00
33
   300.00
999
W3
0
3DFACE
8
W1
10
   -44.50
20
  -751.00
30
   338.00
11
   -44.50
21
    -1.00
31
   338.00
12
   -44.50
22
    -1.00
32
   300.00
13
   -44.50
23
  -751.00
33
   300.00
999
W3
0
3DFACE
8
W1
10
    45.50
20
    -1.00
30
   338.00
11
    45.50
21
  -751.00
31
   338.00
12
    45.50
22
  -751.00
32
   300.00
13
    45.50
23
    -1.00
33
   300.00
999
W3
0
3DFACE
8
W1
10
   -44.50
20
    -1.00
30
   298.00
11
   -44.50
21
  -201.00
31
   298.00
12
    45.50
22
  -201.00
32
   298.00
13
    45.50
23
    -1.00
33
   298.00
999
W3
0
3DFACE
8
W1
10
   -44.50
20
    -1.00
30
   260.00
11
   -44.50
21
  -201.00
31
   260.00
12
   -44.50
22
  -201.00
32
   298.00
13
   -44.50
23
    -1.00
33
   298.00
999
W3
0
3DFACE
8
W1
10
    45.50
20
  -201.00
30
   260.00
11
    45.50
21
    -1.00
31
   260.00
12
    45.50
22
    -1.00
32
   298.00
13
    45.50
23
  -201.00
33
   298.00
999
W3
0
3DFACE
8
W1
10
   -44.50
20
  -379.68
30
   700.00
11
   -44.50
21
  -751.00
31
   440.00
12
    45.50
22
  -751.00
32
   440.00
13
    45.50
23
  -379.68
33
   700.00
999
W3
0
3DFACE
8
W1
10
   -44.50
20
  -357.89
30
   668.87
11
   -44.50
21
  -729.20
31
   408.87
12
   -44.50
22
  -751.00
32
   440.00
13
   -44.50
23
  -379.68
33
   700.00
999
W3
0
3DFACE
8
W1
10
    45.50
20
  -729.20
30
   408.87
11
    45.50
21
  -357.89
31
   668.87
12
    45.50
22
  -379.68
32
   700.00
13
    45.50
23
  -751.00
33
   440.00
999
W3
0
3DFACE
8
W1
10
   -44.50
20
   749.00
30
   440.00
11
   -44.50
21
   377.68
31
   700.00
12
    45.50
22
   377.68
32
   700.00
13
    45.50
23
   749.00
33
   440.00
999
W3
0
3DFACE
8
W1
10
   -44.50
20
   727.20
30
   408.87
11
   -44.50
21
   355.89
31
   668.87
12
   -44.50
22
   377.68
32
   700.00
13
   -44.50
23
   749.00
33
   440.00
999
W3
0
3DFACE
8
W1
10
    45.50
20
   355.89
30
   668.87
11
    45.50
21
   727.20
31
   408.87
12
    45.50
22
   749.00
32
   440.00
13
    45.50
23
   377.68
33
   700.00
999
W3
0
3DFACE
8
W1
10
   -44.50
20
   649.00
30
   700.00
11
   -44.50
21
   649.00
31
   840.00
12
    45.50
22
   649.00
32
   840.00
13
    45.50
23
   649.00
33
   700.00
999
W3
0
3DFACE
8
W1
10
   -44.50
20
   611.00
30
   700.00
11
   -44.50
21
   611.00
31
   840.00
12
   -44.50
22
   649.00
32
   840.00
13
   -44.50
23
   649.00
33
   700.00
999
W3
0
3DFACE
8
W1
10
    45.50
20
   611.00
30
   840.00
11
    45.50
21
   611.00
31
   700.00
12
    45.50
22
   649.00
32
   700.00
13
    45.50
23
   649.00
33
   840.00
999
W3
0
3DFACE
8
W1
10
   -44.50
20
   649.00
30
   840.00
11
   -44.50
21
   277.68
31
  1100.00
12
    45.50
22
   277.68
32
  1100.00
13
    45.50
23
   649.00
33
   840.00
999
W3
0
3DFACE
8
W1
10
   -44.50
20
   627.20
30
   808.87
11
   -44.50
21
   255.89
31
  1068.87
12
   -44.50
22
   277.68
32
  1100.00
13
   -44.50
23
   649.00
33
   840.00
999
W3
0
3DFACE
8
W1
10
    45.50
20
   255.89
30
  1068.87
11
    45.50
21
   627.20
31
   808.87
12
    45.50
22
   649.00
32
   840.00
13
    45.50
23
   277.68
33
  1100.00
999
W3
0
3DFACE
8
W1
10
   -44.50
20
  -651.00
30
   700.00
11
   -44.50
21
   -46.00
31
   700.00
12
    45.50
22
   -46.00
32
   700.00
13
    45.50
23
  -651.00
33
   700.00
999
W3
0
3DFACE
8
W1
10
   -44.50
20
  -651.00
30
   738.00
11
   -44.50
21
   -46.00
31
   738.00
12
   -44.50
22
   -46.00
32
   700.00
13
   -44.50
23
  -651.00
33
   700.00
999
W3
0
3DFACE
8
W1
10
    45.50
20
   -46.00
30
   738.00
11
    45.50
21
  -651.00
31
   738.00
12
    45.50
22
  -651.00
32
   700.00
13
    45.50
23
   -46.00
33
   700.00
999
W3
0
3DFACE
8
W1
10
   -44.50
20
   380.54
30
   698.00
11
   -44.50
21
  -382.54
31
   698.00
12
    45.50
22
  -382.54
32
   698.00
13
    45.50
23
   380.54
33
   698.00
999
W3
0
3DFACE
8
W1
10
   -44.50
20
   380.54
30
   660.00
11
   -44.50
21
  -382.54
31
   660.00
12
   -44.50
22
  -382.54
32
   698.00
13
   -44.50
23
   380.54
33
   698.00
999
W3
0
3DFACE
8
W1
10
    45.50
20
  -382.54
30
   660.00
11
    45.50
21
   380.54
31
   660.00
12
    45.50
22
   380.54
32
   698.00
13
    45.50
23
  -382.54
33
   698.00
999
W3
0
3DFACE
8
W1
10
   -44.50
20
  -651.00
30
   840.00
11
   -44.50
21
  -651.00
31
   700.00
12
    45.50
22
  -651.00
32
   700.00
13
    45.50
23
  -651.00
33
   840.00
999
W3
0
3DFACE
8
W1
10
   -44.50
20
  -613.00
30
   840.00
11
   -44.50
21
  -613.00
31
   700.00
12
   -44.50
22
  -651.00
32
   700.00
13
   -44.50
23
  -651.00
33
   840.00
999
W3
0
3DFACE
8
W1
10
    45.50
20
  -613.00
30
   700.00
11
    45.50
21
  -613.00
31
   840.00
12
    45.50
22
  -651.00
32
   840.00
13
    45.50
23
  -651.00
33
   700.00
999
W3
0
3DFACE
8
W1
10
   -44.50
20
  -279.68
30
  1100.00
11
   -44.50
21
  -651.00
31
   840.00
12
    45.50
22
  -651.00
32
   840.00
13
    45.50
23
  -279.68
33
  1100.00
999
W3
0
3DFACE
8
W1
10
   -44.50
20
  -257.89
30
  1068.87
11
   -44.50
21
  -629.20
31
   808.87
12
   -44.50
22
  -651.00
32
   840.00
13
   -44.50
23
  -279.68
33
  1100.00
999
W3
0
3DFACE
8
W1
10
    45.50
20
  -629.20
30
   808.87
11
    45.50
21
  -257.89
31
  1068.87
12
    45.50
22
  -279.68
32
  1100.00
13
    45.50
23
  -651.00
33
   840.00
999
W3
0
3DFACE
8
W1
10
   -44.50
20
    46.00
30
  1100.00
11
   -44.50
21
   549.00
31
  1100.00
12
    45.50
22
   549.00
32
  1100.00
13
    45.50
23
    46.00
33
  1100.00
999
W3
0
3DFACE
8
W1
10
   -44.50
20
    46.00
30
  1138.00
11
   -44.50
21
   549.00
31
  1138.00
12
   -44.50
22
   549.00
32
  1100.00
13
   -44.50
23
    46.00
33
  1100.00
999
W3
0
3DFACE
8
W1
10
    45.50
20
   549.00
30
  1138.00
11
    45.50
21
    46.00
31
  1138.00
12
    45.50
22
    46.00
32
  1100.00
13
    45.50
23
   549.00
33
  1100.00
999
W3
0
3DFACE
8
W1
10
   -44.50
20
   280.54
30
  1098.00
11
   -44.50
21
    46.00
31
  1098.00
12
    45.50
22
    46.00
32
  1098.00
13
    45.50
23
   280.54
33
  1098.00
999
W3
0
3DFACE
8
W1
10
   -44.50
20
   280.54
30
  1060.00
11
   -44.50
21
    46.00
31
  1060.00
12
   -44.50
22
    46.00
32
  1098.00
13
   -44.50
23
   280.54
33
  1098.00
999
W3
0
3DFACE
8
W1
10
    45.50
20
    46.00
30
  1060.00
11
    45.50
21
   280.54
31
  1060.00
12
    45.50
22
   280.54
32
  1098.00
13
    45.50
23
    46.00
33
  1098.00
999
W3
0
3DFACE
8
W1
10
   -44.50
20
   549.00
30
  1100.00
11
   -44.50
21
   549.00
31
  1240.00
12
    45.50
22
   549.00
32
  1240.00
13
    45.50
23
   549.00
33
  1100.00
999
W3
0
3DFACE
8
W1
10
   -44.50
20
   511.00
30
  1100.00
11
   -44.50
21
   511.00
31
  1240.00
12
   -44.50
22
   549.00
32
  1240.00
13
   -44.50
23
   549.00
33
  1100.00
999
W3
0
3DFACE
8
W1
10
    45.50
20
   511.00
30
  1240.00
11
    45.50
21
   511.00
31
  1100.00
12
    45.50
22
   549.00
32
  1100.00
13
    45.50
23
   549.00
33
  1240.00
999
W3
0
3DFACE
8
W1
10
   -44.50
20
   549.00
30
  1240.00
11
   -44.50
21
   177.68
31
  1500.00
12
    45.50
22
   177.68
32
  1500.00
13
    45.50
23
   549.00
33
  1240.00
999
W3
0
3DFACE
8
W1
10
   -44.50
20
   527.20
30
  1208.87
11
   -44.50
21
   155.89
31
  1468.87
12
   -44.50
22
   177.68
32
  1500.00
13
   -44.50
23
   549.00
33
  1240.00
999
W3
0
3DFACE
8
W1
10
    45.50
20
   155.89
30
  1468.87
11
    45.50
21
   527.20
31
  1208.87
12
    45.50
22
   549.00
32
  1240.00
13
    45.50
23
   177.68
33
  1500.00
999
W3
0
3DFACE
8
W1
10
   -44.50
20
  -551.00
30
  1100.00
11
   -44.50
21
   -46.00
31
  1100.00
12
    45.50
22
   -46.00
32
  1100.00
13
    45.50
23
  -551.00
33
  1100.00
999
W3
0
3DFACE
8
W1
10
   -44.50
20
  -551.00
30
  1138.00
11
   -44.50
21
   -46.00
31
  1138.00
12
   -44.50
22
   -46.00
32
  1100.00
13
   -44.50
23
  -551.00
33
  1100.00
999
W3
0
3DFACE
8
W1
10
    45.50
20
   -46.00
30
  1138.00
11
    45.50
21
  -551.00
31
  1138.00
12
    45.50
22
  -551.00
32
  1100.00
13
    45.50
23
   -46.00
33
  1100.00
999
W3
0
3DFACE
8
W1
10
   -44.50
20
   -46.00
30
  1098.00
11
   -44.50
21
  -282.54
31
  1098.00
12
    45.50
22
  -282.54
32
  1098.00
13
    45.50
23
   -46.00
33
  1098.00
999
W3
0
3DFACE
8
W1
10
   -44.50
20
   -46.00
30
  1060.00
11
   -44.50
21
  -282.54
31
  1060.00
12
   -44.50
22
  -282.54
32
  1098.00
13
   -44.50
23
   -46.00
33
  1098.00
999
W3
0
3DFACE
8
W1
10
    45.50
20
  -282.54
30
  1060.00
11
    45.50
21
   -46.00
31
  1060.00
12
    45.50
22
   -46.00
32
  1098.00
13
    45.50
23
  -282.54
33
  1098.00
999
W3
0
3DFACE
8
W1
10
   -44.50
20
  -551.00
30
  1240.00
11
   -44.50
21
  -551.00
31
  1100.00
12
    45.50
22
  -551.00
32
  1100.00
13
    45.50
23
  -551.00
33
  1240.00
999
W3
0
3DFACE
8
W1
10
   -44.50
20
  -513.00
30
  1240.00
11
   -44.50
21
  -513.00
31
  1100.00
12
   -44.50
22
  -551.00
32
  1100.00
13
   -44.50
23
  -551.00
33
  1240.00
999
W3
0
3DFACE
8
W1
10
    45.50
20
  -513.00
30
  1100.00
11
    45.50
21
  -513.00
31
  1240.00
12
    45.50
22
  -551.00
32
  1240.00
13
    45.50
23
  -551.00
33
  1100.00
999
W3
0
3DFACE
8
W1
10
   -44.50
20
  -179.68
30
  1500.00
11
   -44.50
21
  -551.00
31
  1240.00
12
    45.50
22
  -551.00
32
  1240.00
13
    45.50
23
  -179.68
33
  1500.00
999
W3
0
3DFACE
8
W1
10
   -44.50
20
  -157.89
30
  1468.87
11
   -44.50
21
  -529.20
31
  1208.87
12
   -44.50
22
  -551.00
32
  1240.00
13
   -44.50
23
  -179.68
33
  1500.00
999
W3
0
3DFACE
8
W1
10
    45.50
20
  -529.20
30
  1208.87
11
    45.50
21
  -157.89
31
  1468.87
12
    45.50
22
  -179.68
32
  1500.00
13
    45.50
23
  -551.00
33
  1240.00
999
W3
0
3DFACE
8
W1
10
   -44.50
20
    46.00
30
  1500.00
11
   -44.50
21
   409.00
31
  1500.00
12
    45.50
22
   409.00
32
  1500.00
13
    45.50
23
    46.00
33
  1500.00
999
W3
0
3DFACE
8
W1
10
   -44.50
20
    46.00
30
  1538.00
11
   -44.50
21
   409.00
31
  1538.00
12
   -44.50
22
   409.00
32
  1500.00
13
   -44.50
23
    46.00
33
  1500.00
999
W3
0
3DFACE
8
W1
10
    45.50
20
   409.00
30
  1538.00
11
    45.50
21
    46.00
31
  1538.00
12
    45.50
22
    46.00
32
  1500.00
13
    45.50
23
   409.00
33
  1500.00
999
W3
0
3DFACE
8
W1
10
   -44.50
20
   180.54
30
  1498.00
11
   -44.50
21
    46.00
31
  1498.00
12
    45.50
22
    46.00
32
  1498.00
13
    45.50
23
   180.54
33
  1498.00
999
W3
0
3DFACE
8
W1
10
   -44.50
20
   180.54
30
  1460.00
11
   -44.50
21
    46.00
31
  1460.00
12
   -44.50
22
    46.00
32
  1498.00
13
   -44.50
23
   180.54
33
  1498.00
999
W3
0
3DFACE
8
W1
10
    45.50
20
    46.00
30
  1460.00
11
    45.50
21
   180.54
31
  1460.00
12
    45.50
22
   180.54
32
  1498.00
13
    45.50
23
    46.00
33
  1498.00
999
W3
0
3DFACE
8
W1
10
   -44.50
20
  -411.00
30
  1500.00
11
   -44.50
21
   -46.00
31
  1500.00
12
    45.50
22
   -46.00
32
  1500.00
13
    45.50
23
  -411.00
33
  1500.00
999
W3
0
3DFACE
8
W1
10
   -44.50
20
  -411.00
30
  1538.00
11
   -44.50
21
   -46.00
31
  1538.00
12
   -44.50
22
   -46.00
32
  1500.00
13
   -44.50
23
  -411.00
33
  1500.00
999
W3
0
3DFACE
8
W1
10
    45.50
20
   -46.00
30
  1538.00
11
    45.50
21
  -411.00
31
  1538.00
12
    45.50
22
  -411.00
32
  1500.00
13
    45.50
23
   -46.00
33
  1500.00
999
W3
0
3DFACE
8
W1
10
   -44.50
20
   -46.00
30
  1498.00
11
   -44.50
21
  -182.54
31
  1498.00
12
    45.50
22
  -182.54
32
  1498.00
13
    45.50
23
   -46.00
33
  1498.00
999
W3
0
3DFACE
8
W1
10
   -44.50
20
   -46.00
30
  1460.00
11
   -44.50
21
  -182.54
31
  1460.00
12
   -44.50
22
  -182.54
32
  1498.00
13
   -44.50
23
   -46.00
33
  1498.00
999
W3
0
3DFACE
8
W1
10
    45.50
20
  -182.54
30
  1460.00
11
    45.50
21
   -46.00
31
  1460.00
12
    45.50
22
   -46.00
32
  1498.00
13
    45.50
23
  -182.54
33
  1498.00
999
W3
0
3DFACE
8
W1
10
   -44.50
20
   409.00
30
  1640.00
11
   -44.50
21
   109.09
31
  1850.00
12
    45.50
22
   109.09
32
  1850.00
13
    45.50
23
   409.00
33
  1640.00
999
W3
0
3DFACE
8
W1
10
   -44.50
20
   387.20
30
  1608.87
11
   -44.50
21
    87.29
31
  1818.87
12
   -44.50
22
   109.09
32
  1850.00
13
   -44.50
23
   409.00
33
  1640.00
999
W3
0
3DFACE
8
W1
10
    45.50
20
    87.29
30
  1818.87
11
    45.50
21
   387.20
31
  1608.87
12
    45.50
22
   409.00
32
  1640.00
13
    45.50
23
   109.09
33
  1850.00
999
W3
0
3DFACE
8
W1
10
   -44.50
20
  -111.09
30
  1850.00
11
   -44.50
21
  -411.00
31
  1640.00
12
    45.50
22
  -411.00
32
  1640.00
13
    45.50
23
  -111.09
33
  1850.00
999
W3
0
3DFACE
8
W1
10
   -44.50
20
   -89.29
30
  1818.87
11
   -44.50
21
  -389.20
31
  1608.87
12
   -44.50
22
  -411.00
32
  1640.00
13
   -44.50
23
  -111.09
33
  1850.00
999
W3
0
3DFACE
8
W1
10
    45.50
20
  -389.20
30
  1608.87
11
    45.50
21
   -89.29
31
  1818.87
12
    45.50
22
  -111.09
32
  1850.00
13
    45.50
23
  -411.00
33
  1640.00
999
W3
0
3DFACE
8
W1
10
   -44.50
20
  -411.00
30
  1640.00
11
   -44.50
21
  -411.00
31
  1500.00
12
    45.50
22
  -411.00
32
  1500.00
13
    45.50
23
  -411.00
33
  1640.00
999
W3
0
3DFACE
8
W1
10
   -44.50
20
  -373.00
30
  1640.00
11
   -44.50
21
  -373.00
31
  1500.00
12
   -44.50
22
  -411.00
32
  1500.00
13
   -44.50
23
  -411.00
33
  1640.00
999
W3
0
3DFACE
8
W1
10
    45.50
20
  -373.00
30
  1500.00
11
    45.50
21
  -373.00
31
  1640.00
12
    45.50
22
  -411.00
32
  1640.00
13
    45.50
23
  -411.00
33
  1500.00
999
W3
0
3DFACE
8
W1
10
   -44.50
20
   409.00
30
  1500.00
11
   -44.50
21
   409.00
31
  1640.00
12
    45.50
22
   409.00
32
  1640.00
13
    45.50
23
   409.00
33
  1500.00
999
W3
0
3DFACE
8
W1
10
   -44.50
20
   371.00
30
  1500.00
11
   -44.50
21
   371.00
31
  1640.00
12
   -44.50
22
   409.00
32
  1640.00
13
   -44.50
23
   409.00
33
  1500.00
999
W3
0
3DFACE
8
W1
10
    45.50
20
   371.00
30
  1640.00
11
    45.50
21
   371.00
31
  1500.00
12
    45.50
22
   409.00
32
  1500.00
13
    45.50
23
   409.00
33
  1640.00
999
W3
0
3DFACE
8
W1
10
   -44.50
20
    46.00
30
  1850.00
11
   -44.50
21
   309.00
31
  1850.00
12
    45.50
22
   309.00
32
  1850.00
13
    45.50
23
    46.00
33
  1850.00
999
W3
0
3DFACE
8
W1
10
   -44.50
20
    46.00
30
  1888.00
11
   -44.50
21
   309.00
31
  1888.00
12
   -44.50
22
   309.00
32
  1850.00
13
   -44.50
23
    46.00
33
  1850.00
999
W3
0
3DFACE
8
W1
10
    45.50
20
   309.00
30
  1888.00
11
    45.50
21
    46.00
31
  1888.00
12
    45.50
22
    46.00
32
  1850.00
13
    45.50
23
   309.00
33
  1850.00
999
W3
0
3DFACE
8
W1
10
   -44.50
20
   111.95
30
  1848.00
11
   -44.50
21
    46.00
31
  1848.00
12
    45.50
22
    46.00
32
  1848.00
13
    45.50
23
   111.95
33
  1848.00
999
W3
0
3DFACE
8
W1
10
   -44.50
20
   111.95
30
  1810.00
11
   -44.50
21
    46.00
31
  1810.00
12
   -44.50
22
    46.00
32
  1848.00
13
   -44.50
23
   111.95
33
  1848.00
999
W3
0
3DFACE
8
W1
10
    45.50
20
    46.00
30
  1810.00
11
    45.50
21
   111.95
31
  1810.00
12
    45.50
22
   111.95
32
  1848.00
13
    45.50
23
    46.00
33
  1848.00
999
W3
0
3DFACE
8
W1
10
   -44.50
20
  -311.00
30
  1850.00
11
   -44.50
21
   -46.00
31
  1850.00
12
    45.50
22
   -46.00
32
  1850.00
13
    45.50
23
  -311.00
33
  1850.00
999
W3
0
3DFACE
8
W1
10
   -44.50
20
  -311.00
30
  1888.00
11
   -44.50
21
   -46.00
31
  1888.00
12
   -44.50
22
   -46.00
32
  1850.00
13
   -44.50
23
  -311.00
33
  1850.00
999
W3
0
3DFACE
8
W1
10
    45.50
20
   -46.00
30
  1888.00
11
    45.50
21
  -311.00
31
  1888.00
12
    45.50
22
  -311.00
32
  1850.00
13
    45.50
23
   -46.00
33
  1850.00
999
W3
0
3DFACE
8
W1
10
   -44.50
20
   -46.00
30
  1848.00
11
   -44.50
21
  -113.95
31
  1848.00
12
    45.50
22
  -113.95
32
  1848.00
13
    45.50
23
   -46.00
33
  1848.00
999
W3
0
3DFACE
8
W1
10
   -44.50
20
   -46.00
30
  1810.00
11
   -44.50
21
  -113.95
31
  1810.00
12
   -44.50
22
  -113.95
32
  1848.00
13
   -44.50
23
   -46.00
33
  1848.00
999
W3
0
3DFACE
8
W1
10
    45.50
20
  -113.95
30
  1810.00
11
    45.50
21
   -46.00
31
  1810.00
12
    45.50
22
   -46.00
32
  1848.00
13
    45.50
23
  -113.95
33
  1848.00
999
W3
0
3DFACE
8
W1
10
   -44.50
20
   309.00
30
  1850.00
11
   -44.50
21
   309.00
31
  1989.73
12
    45.50
22
   309.00
32
  1989.73
13
    45.50
23
   309.00
33
  1850.00
999
W3
0
3DFACE
8
W1
10
   -44.50
20
   271.00
30
  1850.00
11
   -44.50
21
   271.00
31
  1989.73
12
   -44.50
22
   309.00
32
  1989.73
13
   -44.50
23
   309.00
33
  1850.00
999
W3
0
3DFACE
8
W1
10
    45.50
20
   271.00
30
  1989.73
11
    45.50
21
   271.00
31
  1850.00
12
    45.50
22
   309.00
32
  1850.00
13
    45.50
23
   309.00
33
  1989.73
999
W3
0
3DFACE
8
W1
10
   -44.50
20
  -311.00
30
  1990.20
11
   -44.50
21
  -311.00
31
  1850.00
12
    45.50
22
  -311.00
32
  1850.00
13
    45.50
23
  -311.00
33
  1990.20
999
W3
0
3DFACE
8
W1
10
   -44.50
20
  -273.00
30
  1990.20
11
   -44.50
21
  -273.00
31
  1850.00
12
   -44.50
22
  -311.00
32
  1850.00
13
   -44.50
23
  -311.00
33
  1990.20
999
W3
0
3DFACE
8
W1
10
    45.50
20
  -273.00
30
  1850.00
11
    45.50
21
  -273.00
31
  1990.20
12
    45.50
22
  -311.00
32
  1990.20
13
    45.50
23
  -311.00
33
  1850.00
999
W3
0
3DFACE
8
W1
10
   -44.50
20
   -46.00
30
  2175.76
11
   -44.50
21
  -311.00
31
  1990.20
12
    45.50
22
  -311.00
32
  1990.20
13
    45.50
23
   -46.00
33
  2175.76
999
W3
0
3DFACE
8
W1
10
   -44.50
20
   -24.20
30
  2144.63
11
   -44.50
21
  -289.20
31
  1959.07
12
   -44.50
22
  -311.00
32
  1990.20
13
   -44.50
23
   -46.00
33
  2175.76
999
W3
0
3DFACE
8
W1
10
    45.50
20
  -289.20
30
  1959.07
11
    45.50
21
   -24.20
31
  2144.63
12
    45.50
22
   -46.00
32
  2175.76
13
    45.50
23
  -311.00
33
  1990.20
999
W3
0
3DFACE
8
W1
10
   -44.50
20
   309.00
30
  1989.73
11
   -44.50
21
    46.00
31
  2173.89
12
    45.50
22
    46.00
32
  2173.89
13
    45.50
23
   309.00
33
  1989.73
999
W3
0
3DFACE
8
W1
10
   -44.50
20
   287.20
30
  1958.61
11
   -44.50
21
    24.20
31
  2142.76
12
   -44.50
22
    46.00
32
  2173.89
13
   -44.50
23
   309.00
33
  1989.73
999
W3
0
3DFACE
8
W1
10
    45.50
20
    24.20
30
  2142.76
11
    45.50
21
   287.20
31
  1958.61
12
    45.50
22
   309.00
32
  1989.73
13
    45.50
23
    46.00
33
  2173.89
999
W3
0
3DFACE
8
W1
10
   -44.50
20
   201.00
30
    -0.00
11
   -44.50
21
   201.00
31
   300.00
12
    45.50
22
   201.00
32
   300.00
13
    45.50
23
   201.00
33
    -0.00
999
W3
0
3DFACE
8
W1
10
   -44.50
20
   163.00
30
    -0.00
11
   -44.50
21
   163.00
31
   300.00
12
   -44.50
22
   201.00
32
   300.00
13
   -44.50
23
   201.00
33
    -0.00
999
W3
0
3DFACE
8
W1
10
    45.50
20
   163.00
30
   300.00
11
    45.50
21
   163.00
31
    -0.00
12
    45.50
22
   201.00
32
    -0.00
13
    45.50
23
   201.00
33
   300.00
999
W3
0
3DFACE
8
W1
10
   -44.50
20
  -201.00
30
   300.00
11
   -44.50
21
  -201.00
31
    -0.00
12
    45.50
22
  -201.00
32
    -0.00
13
    45.50
23
  -201.00
33
   300.00
999
W3
0
3DFACE
8
W1
10
   -44.50
20
  -163.00
30
   300.00
11
   -44.50
21
  -163.00
31
    -0.00
12
   -44.50
22
  -201.00
32
    -0.00
13
   -44.50
23
  -201.00
33
   300.00
999
W3
0
3DFACE
8
W1
10
    45.50
20
  -163.00
30
    -0.00
11
    45.50
21
  -163.00
31
   300.00
12
    45.50
22
  -201.00
32
   300.00
13
    45.50
23
  -201.00
33
    -0.00
999
W3
0
3DFACE
8
W1
10
   -44.50
20
    46.00
30
  2173.89
11
   -44.50
21
    46.00
31
   698.00
12
    45.50
22
    46.00
32
   698.00
13
    45.50
23
    46.00
33
  2173.89
999
W3
0
3DFACE
8
W1
10
   -44.50
20
    84.00
30
  2173.89
11
   -44.50
21
    84.00
31
   698.00
12
   -44.50
22
    46.00
32
   698.00
13
   -44.50
23
    46.00
33
  2173.89
999
W3
0
3DFACE
8
W1
10
    45.50
20
    84.00
30
   698.00
11
    45.50
21
    84.00
31
  2173.89
12
    45.50
22
    46.00
32
  2173.89
13
    45.50
23
    46.00
33
   698.00
999
W3
0
3DFACE
8
W1
10
   -44.50
20
   -46.00
30
   698.00
11
   -44.50
21
   -46.00
31
  2175.76
12
    45.50
22
   -46.00
32
  2175.76
13
    45.50
23
   -46.00
33
   698.00
999
W3
0
3DFACE
8
W1
10
   -44.50
20
   -84.00
30
   698.00
11
   -44.50
21
   -84.00
31
  2175.76
12
   -44.50
22
   -46.00
32
  2175.76
13
   -44.50
23
   -46.00
33
   698.00
999
W3
0
3DFACE
8
W1
10
    45.50
20
   -84.00
30
  2175.76
11
    45.50
21
   -84.00
31
   698.00
12
    45.50
22
   -46.00
32
   698.00
13
    45.50
23
   -46.00
33
  2175.76
999
W3
0
3DFACE
8
W1
10
   -44.50
20
     1.00
30
   698.00
11
   -44.50
21
     1.00
31
    -0.00
12
    45.50
22
     1.00
32
    -0.00
13
    45.50
23
     1.00
33
   698.00
999
W3
0
3DFACE
8
W1
10
   -44.50
20
    39.00
30
   698.00
11
   -44.50
21
    39.00
31
    -0.00
12
   -44.50
22
     1.00
32
    -0.00
13
   -44.50
23
     1.00
33
   698.00
999
W3
0
3DFACE
8
W1
10
    45.50
20
    39.00
30
    -0.00
11
    45.50
21
    39.00
31
   698.00
12
    45.50
22
     1.00
32
   698.00
13
    45.50
23
     1.00
33
    -0.00
999
W3
0
3DFACE
8
W1
10
   -44.50
20
    46.00
30
   700.00
11
   -44.50
21
   649.00
31
   700.00
12
    45.50
22
   649.00
32
   700.00
13
    45.50
23
    46.00
33
   700.00
999
W3
0
3DFACE
8
W1
10
   -44.50
20
    46.00
30
   738.00
11
   -44.50
21
   649.00
31
   738.00
12
   -44.50
22
   649.00
32
   700.00
13
   -44.50
23
    46.00
33
   700.00
999
W3
0
3DFACE
8
W1
10
    45.50
20
   649.00
30
   738.00
11
    45.50
21
    46.00
31
   738.00
12
    45.50
22
    46.00
32
   700.00
13
    45.50
23
   649.00
33
   700.00
999
W3
0
TEXT
8
W1t
10
  -44.50
20
   -1.00
30
 2200.00
40
120
1
W3
999
W3
0
3DFACE
8
W1
10
  -200.50
20
    46.00
30
     0.00
11
   -45.50
21
    46.00
31
     0.00
12
   -45.50
22
   -44.00
32
     0.00
13
  -200.50
23
   -44.00
33
     0.00
999
W5
0
3DFACE
8
W1
10
  -200.50
20
    46.00
30
    38.00
11
   -45.50
21
    46.00
31
    38.00
12
   -45.50
22
    46.00
32
     0.00
13
  -200.50
23
    46.00
33
     0.00
999
W5
0
3DFACE
8
W1
10
   -45.50
20
   -44.00
30
    38.00
11
  -200.50
21
   -44.00
31
    38.00
12
  -200.50
22
   -44.00
32
     0.00
13
   -45.50
23
   -44.00
33
     0.00
999
W5
0
3DFACE
8
W1
10
   749.50
20
    46.00
30
   300.00
11
   749.50
21
    46.00
31
   440.00
12
   749.50
22
   -44.00
32
   440.00
13
   749.50
23
   -44.00
33
   300.00
999
W5
0
3DFACE
8
W1
10
   711.50
20
    46.00
30
   300.00
11
   711.50
21
    46.00
31
   440.00
12
   749.50
22
    46.00
32
   440.00
13
   749.50
23
    46.00
33
   300.00
999
W5
0
3DFACE
8
W1
10
   711.50
20
   -44.00
30
   440.00
11
   711.50
21
   -44.00
31
   300.00
12
   749.50
22
   -44.00
32
   300.00
13
   749.50
23
   -44.00
33
   440.00
999
W5
0
3DFACE
8
W1
10
  -750.50
20
    46.00
30
   440.00
11
  -750.50
21
    46.00
31
   300.00
12
  -750.50
22
   -44.00
32
   300.00
13
  -750.50
23
   -44.00
33
   440.00
999
W5
0
3DFACE
8
W1
10
  -712.50
20
    46.00
30
   440.00
11
  -712.50
21
    46.00
31
   300.00
12
  -750.50
22
    46.00
32
   300.00
13
  -750.50
23
    46.00
33
   440.00
999
W5
0
3DFACE
8
W1
10
  -712.50
20
   -44.00
30
   300.00
11
  -712.50
21
   -44.00
31
   440.00
12
  -750.50
22
   -44.00
32
   440.00
13
  -750.50
23
   -44.00
33
   300.00
999
W5
0
3DFACE
8
W1
10
     0.50
20
    46.00
30
  2206.10
11
     0.50
21
    46.00
31
   700.00
12
     0.50
22
   -44.00
32
   700.00
13
     0.50
23
   -44.00
33
  2206.10
999
W5
0
3DFACE
8
W1
10
    38.50
20
    46.00
30
  2206.10
11
    38.50
21
    46.00
31
   700.00
12
     0.50
22
    46.00
32
   700.00
13
     0.50
23
    46.00
33
  2206.10
999
W5
0
3DFACE
8
W1
10
    38.50
20
   -44.00
30
   700.00
11
    38.50
21
   -44.00
31
  2206.10
12
     0.50
22
   -44.00
32
  2206.10
13
     0.50
23
   -44.00
33
   700.00
999
W5
0
3DFACE
8
W1
10
    46.50
20
    46.00
30
   300.00
11
   749.50
21
    46.00
31
   300.00
12
   749.50
22
   -44.00
32
   300.00
13
    46.50
23
   -44.00
33
   300.00
999
W5
0
3DFACE
8
W1
10
    46.50
20
    46.00
30
   338.00
11
   749.50
21
    46.00
31
   338.00
12
   749.50
22
    46.00
32
   300.00
13
    46.50
23
    46.00
33
   300.00
999
W5
0
3DFACE
8
W1
10
   749.50
20
   -44.00
30
   338.00
11
    46.50
21
   -44.00
31
   338.00
12
    46.50
22
   -44.00
32
   300.00
13
   749.50
23
   -44.00
33
   300.00
999
W5
0
3DFACE
8
W1
10
   201.50
20
    46.00
30
   298.00
11
    46.50
21
    46.00
31
   298.00
12
    46.50
22
   -44.00
32
   298.00
13
   201.50
23
   -44.00
33
   298.00
999
W5
0
3DFACE
8
W1
10
   201.50
20
    46.00
30
   260.00
11
    46.50
21
    46.00
31
   260.00
12
    46.50
22
    46.00
32
   298.00
13
   201.50
23
    46.00
33
   298.00
999
W5
0
3DFACE
8
W1
10
    46.50
20
   -44.00
30
   260.00
11
   201.50
21
   -44.00
31
   260.00
12
   201.50
22
   -44.00
32
   298.00
13
    46.50
23
   -44.00
33
   298.00
999
W5
0
3DFACE
8
W1
10
  -750.50
20
    46.00
30
   300.00
11
   -45.50
21
    46.00
31
   300.00
12
   -45.50
22
   -44.00
32
   300.00
13
  -750.50
23
   -44.00
33
   300.00
999
W5
0
3DFACE
8
W1
10
  -750.50
20
    46.00
30
   338.00
11
   -45.50
21
    46.00
31
   338.00
12
   -45.50
22
    46.00
32
   300.00
13
  -750.50
23
    46.00
33
   300.00
999
W5
0
3DFACE
8
W1
10
   -45.50
20
   -44.00
30
   338.00
11
  -750.50
21
   -44.00
31
   338.00
12
  -750.50
22
   -44.00
32
   300.00
13
   -45.50
23
   -44.00
33
   300.00
999
W5
0
3DFACE
8
W1
10
   -45.50
20
    46.00
30
   298.00
11
  -200.50
21
    46.00
31
   298.00
12
  -200.50
22
   -44.00
32
   298.00
13
   -45.50
23
   -44.00
33
   298.00
999
W5
0
3DFACE
8
W1
10
   -45.50
20
    46.00
30
   260.00
11
  -200.50
21
    46.00
31
   260.00
12
  -200.50
22
    46.00
32
   298.00
13
   -45.50
23
    46.00
33
   298.00
999
W5
0
3DFACE
8
W1
10
  -200.50
20
   -44.00
30
   260.00
11
   -45.50
21
   -44.00
31
   260.00
12
   -45.50
22
   -44.00
32
   298.00
13
  -200.50
23
   -44.00
33
   298.00
999
W5
0
3DFACE
8
W1
10
  -379.18
20
    46.00
30
   700.00
11
  -750.50
21
    46.00
31
   440.00
12
  -750.50
22
   -44.00
32
   440.00
13
  -379.18
23
   -44.00
33
   700.00
999
W5
0
3DFACE
8
W1
10
  -357.39
20
    46.00
30
   668.87
11
  -728.70
21
    46.00
31
   408.87
12
  -750.50
22
    46.00
32
   440.00
13
  -379.18
23
    46.00
33
   700.00
999
W5
0
3DFACE
8
W1
10
  -728.70
20
   -44.00
30
   408.87
11
  -357.39
21
   -44.00
31
   668.87
12
  -379.18
22
   -44.00
32
   700.00
13
  -750.50
23
   -44.00
33
   440.00
999
W5
0
3DFACE
8
W1
10
   749.50
20
    46.00
30
   440.00
11
   378.18
21
    46.00
31
   700.00
12
   378.18
22
   -44.00
32
   700.00
13
   749.50
23
   -44.00
33
   440.00
999
W5
0
3DFACE
8
W1
10
   727.70
20
    46.00
30
   408.87
11
   356.39
21
    46.00
31
   668.87
12
   378.18
22
    46.00
32
   700.00
13
   749.50
23
    46.00
33
   440.00
999
W5
0
3DFACE
8
W1
10
   356.39
20
   -44.00
30
   668.87
11
   727.70
21
   -44.00
31
   408.87
12
   749.50
22
   -44.00
32
   440.00
13
   378.18
23
   -44.00
33
   700.00
999
W5
0
3DFACE
8
W1
10
  -650.50
20
    46.00
30
   700.00
11
   649.50
21
    46.00
31
   700.00
12
   649.50
22
   -44.00
32
   700.00
13
  -650.50
23
   -44.00
33
   700.00
999
W5
0
3DFACE
8
W1
10
  -650.50
20
    46.00
30
   738.00
11
   649.50
21
    46.00
31
   738.00
12
   649.50
22
    46.00
32
   700.00
13
  -650.50
23
    46.00
33
   700.00
999
W5
0
3DFACE
8
W1
10
   649.50
20
   -44.00
30
   738.00
11
  -650.50
21
   -44.00
31
   738.00
12
  -650.50
22
   -44.00
32
   700.00
13
   649.50
23
   -44.00
33
   700.00
999
W5
0
3DFACE
8
W1
10
   381.04
20
    46.00
30
   698.00
11
    46.50
21
    46.00
31
   698.00
12
    46.50
22
   -44.00
32
   698.00
13
   381.04
23
   -44.00
33
   698.00
999
W5
0
3DFACE
8
W1
10
   381.04
20
    46.00
30
   660.00
11
    46.50
21
    46.00
31
   660.00
12
    46.50
22
    46.00
32
   698.00
13
   381.04
23
    46.00
33
   698.00
999
W5
0
3DFACE
8
W1
10
    46.50
20
   -44.00
30
   660.00
11
   381.04
21
   -44.00
31
   660.00
12
   381.04
22
   -44.00
32
   698.00
13
    46.50
23
   -44.00
33
   698.00
999
W5
0
3DFACE
8
W1
10
   649.50
20
    46.00
30
   700.00
11
   649.50
21
    46.00
31
   840.00
12
   649.50
22
   -44.00
32
   840.00
13
   649.50
23
   -44.00
33
   700.00
999
W5
0
3DFACE
8
W1
10
   611.50
20
    46.00
30
   700.00
11
   611.50
21
    46.00
31
   840.00
12
   649.50
22
    46.00
32
   840.00
13
   649.50
23
    46.00
33
   700.00
999
W5
0
3DFACE
8
W1
10
   611.50
20
   -44.00
30
   840.00
11
   611.50
21
   -44.00
31
   700.00
12
   649.50
22
   -44.00
32
   700.00
13
   649.50
23
   -44.00
33
   840.00
999
W5
0
3DFACE
8
W1
10
   649.50
20
    46.00
30
   840.00
11
   278.18
21
    46.00
31
  1100.00
12
   278.18
22
   -44.00
32
  1100.00
13
   649.50
23
   -44.00
33
   840.00
999
W5
0
3DFACE
8
W1
10
   627.70
20
    46.00
30
   808.87
11
   256.39
21
    46.00
31
  1068.87
12
   278.18
22
    46.00
32
  1100.00
13
   649.50
23
    46.00
33
   840.00
999
W5
0
3DFACE
8
W1
10
   256.39
20
   -44.00
30
  1068.87
11
   627.70
21
   -44.00
31
   808.87
12
   649.50
22
   -44.00
32
   840.00
13
   278.18
23
   -44.00
33
  1100.00
999
W5
0
3DFACE
8
W1
10
  -650.50
20
    46.00
30
   840.00
11
  -650.50
21
    46.00
31
   700.00
12
  -650.50
22
   -44.00
32
   700.00
13
  -650.50
23
   -44.00
33
   840.00
999
W5
0
3DFACE
8
W1
10
  -612.50
20
    46.00
30
   840.00
11
  -612.50
21
    46.00
31
   700.00
12
  -650.50
22
    46.00
32
   700.00
13
  -650.50
23
    46.00
33
   840.00
999
W5
0
3DFACE
8
W1
10
  -612.50
20
   -44.00
30
   700.00
11
  -612.50
21
   -44.00
31
   840.00
12
  -650.50
22
   -44.00
32
   840.00
13
  -650.50
23
   -44.00
33
   700.00
999
W5
0
3DFACE
8
W1
10
  -279.18
20
    46.00
30
  1100.00
11
  -650.50
21
    46.00
31
   840.00
12
  -650.50
22
   -44.00
32
   840.00
13
  -279.18
23
   -44.00
33
  1100.00
999
W5
0
3DFACE
8
W1
10
  -257.39
20
    46.00
30
  1068.87
11
  -628.70
21
    46.00
31
   808.87
12
  -650.50
22
    46.00
32
   840.00
13
  -279.18
23
    46.00
33
  1100.00
999
W5
0
3DFACE
8
W1
10
  -628.70
20
   -44.00
30
   808.87
11
  -257.39
21
   -44.00
31
  1068.87
12
  -279.18
22
   -44.00
32
  1100.00
13
  -650.50
23
   -44.00
33
   840.00
999
W5
0
3DFACE
8
W1
10
     0.50
20
    46.00
30
  1100.00
11
   549.50
21
    46.00
31
  1100.00
12
   549.50
22
   -44.00
32
  1100.00
13
     0.50
23
   -44.00
33
  1100.00
999
W5
0
3DFACE
8
W1
10
     0.50
20
    46.00
30
  1138.00
11
   549.50
21
    46.00
31
  1138.00
12
   549.50
22
    46.00
32
  1100.00
13
     0.50
23
    46.00
33
  1100.00
999
W5
0
3DFACE
8
W1
10
   549.50
20
   -44.00
30
  1138.00
11
     0.50
21
   -44.00
31
  1138.00
12
     0.50
22
   -44.00
32
  1100.00
13
   549.50
23
   -44.00
33
  1100.00
999
W5
0
3DFACE
8
W1
10
   281.04
20
    46.00
30
  1098.00
11
     0.50
21
    46.00
31
  1098.00
12
     0.50
22
   -44.00
32
  1098.00
13
   281.04
23
   -44.00
33
  1098.00
999
W5
0
3DFACE
8
W1
10
   281.04
20
    46.00
30
  1060.00
11
     0.50
21
    46.00
31
  1060.00
12
     0.50
22
    46.00
32
  1098.00
13
   281.04
23
    46.00
33
  1098.00
999
W5
0
3DFACE
8
W1
10
     0.50
20
   -44.00
30
  1060.00
11
   281.04
21
   -44.00
31
  1060.00
12
   281.04
22
   -44.00
32
  1098.00
13
     0.50
23
   -44.00
33
  1098.00
999
W5
0
3DFACE
8
W1
10
   549.50
20
    46.00
30
  1100.00
11
   549.50
21
    46.00
31
  1240.00
12
   549.50
22
   -44.00
32
  1240.00
13
   549.50
23
   -44.00
33
  1100.00
999
W5
0
3DFACE
8
W1
10
   511.50
20
    46.00
30
  1100.00
11
   511.50
21
    46.00
31
  1240.00
12
   549.50
22
    46.00
32
  1240.00
13
   549.50
23
    46.00
33
  1100.00
999
W5
0
3DFACE
8
W1
10
   511.50
20
   -44.00
30
  1240.00
11
   511.50
21
   -44.00
31
  1100.00
12
   549.50
22
   -44.00
32
  1100.00
13
   549.50
23
   -44.00
33
  1240.00
999
W5
0
3DFACE
8
W1
10
   549.50
20
    46.00
30
  1240.00
11
   178.18
21
    46.00
31
  1500.00
12
   178.18
22
   -44.00
32
  1500.00
13
   549.50
23
   -44.00
33
  1240.00
999
W5
0
3DFACE
8
W1
10
   527.70
20
    46.00
30
  1208.87
11
   156.39
21
    46.00
31
  1468.87
12
   178.18
22
    46.00
32
  1500.00
13
   549.50
23
    46.00
33
  1240.00
999
W5
0
3DFACE
8
W1
10
   156.39
20
   -44.00
30
  1468.87
11
   527.70
21
   -44.00
31
  1208.87
12
   549.50
22
   -44.00
32
  1240.00
13
   178.18
23
   -44.00
33
  1500.00
999
W5
0
3DFACE
8
W1
10
  -550.50
20
    46.00
30
  1100.00
11
    -1.50
21
    46.00
31
  1100.00
12
    -1.50
22
   -44.00
32
  1100.00
13
  -550.50
23
   -44.00
33
  1100.00
999
W5
0
3DFACE
8
W1
10
  -550.50
20
    46.00
30
  1138.00
11
    -1.50
21
    46.00
31
  1138.00
12
    -1.50
22
    46.00
32
  1100.00
13
  -550.50
23
    46.00
33
  1100.00
999
W5
0
3DFACE
8
W1
10
    -1.50
20
   -44.00
30
  1138.00
11
  -550.50
21
   -44.00
31
  1138.00
12
  -550.50
22
   -44.00
32
  1100.00
13
    -1.50
23
   -44.00
33
  1100.00
999
W5
0
3DFACE
8
W1
10
    -1.50
20
    46.00
30
  1098.00
11
  -282.04
21
    46.00
31
  1098.00
12
  -282.04
22
   -44.00
32
  1098.00
13
    -1.50
23
   -44.00
33
  1098.00
999
W5
0
3DFACE
8
W1
10
    -1.50
20
    46.00
30
  1060.00
11
  -282.04
21
    46.00
31
  1060.00
12
  -282.04
22
    46.00
32
  1098.00
13
    -1.50
23
    46.00
33
  1098.00
999
W5
0
3DFACE
8
W1
10
  -282.04
20
   -44.00
30
  1060.00
11
    -1.50
21
   -44.00
31
  1060.00
12
    -1.50
22
   -44.00
32
  1098.00
13
  -282.04
23
   -44.00
33
  1098.00
999
W5
0
3DFACE
8
W1
10
  -550.50
20
    46.00
30
  1240.00
11
  -550.50
21
    46.00
31
  1100.00
12
  -550.50
22
   -44.00
32
  1100.00
13
  -550.50
23
   -44.00
33
  1240.00
999
W5
0
3DFACE
8
W1
10
  -512.50
20
    46.00
30
  1240.00
11
  -512.50
21
    46.00
31
  1100.00
12
  -550.50
22
    46.00
32
  1100.00
13
  -550.50
23
    46.00
33
  1240.00
999
W5
0
3DFACE
8
W1
10
  -512.50
20
   -44.00
30
  1100.00
11
  -512.50
21
   -44.00
31
  1240.00
12
  -550.50
22
   -44.00
32
  1240.00
13
  -550.50
23
   -44.00
33
  1100.00
999
W5
0
3DFACE
8
W1
10
  -179.18
20
    46.00
30
  1500.00
11
  -550.50
21
    46.00
31
  1240.00
12
  -550.50
22
   -44.00
32
  1240.00
13
  -179.18
23
   -44.00
33
  1500.00
999
W5
0
3DFACE
8
W1
10
  -157.39
20
    46.00
30
  1468.87
11
  -528.70
21
    46.00
31
  1208.87
12
  -550.50
22
    46.00
32
  1240.00
13
  -179.18
23
    46.00
33
  1500.00
999
W5
0
3DFACE
8
W1
10
  -528.70
20
   -44.00
30
  1208.87
11
  -157.39
21
   -44.00
31
  1468.87
12
  -179.18
22
   -44.00
32
  1500.00
13
  -550.50
23
   -44.00
33
  1240.00
999
W5
0
3DFACE
8
W1
10
     0.50
20
    46.00
30
  1500.00
11
   409.50
21
    46.00
31
  1500.00
12
   409.50
22
   -44.00
32
  1500.00
13
     0.50
23
   -44.00
33
  1500.00
999
W5
0
3DFACE
8
W1
10
     0.50
20
    46.00
30
  1538.00
11
   409.50
21
    46.00
31
  1538.00
12
   409.50
22
    46.00
32
  1500.00
13
     0.50
23
    46.00
33
  1500.00
999
W5
0
3DFACE
8
W1
10
   409.50
20
   -44.00
30
  1538.00
11
     0.50
21
   -44.00
31
  1538.00
12
     0.50
22
   -44.00
32
  1500.00
13
   409.50
23
   -44.00
33
  1500.00
999
W5
0
3DFACE
8
W1
10
   181.04
20
    46.00
30
  1498.00
11
     0.50
21
    46.00
31
  1498.00
12
     0.50
22
   -44.00
32
  1498.00
13
   181.04
23
   -44.00
33
  1498.00
999
W5
0
3DFACE
8
W1
10
   181.04
20
    46.00
30
  1460.00
11
     0.50
21
    46.00
31
  1460.00
12
     0.50
22
    46.00
32
  1498.00
13
   181.04
23
    46.00
33
  1498.00
999
W5
0
3DFACE
8
W1
10
     0.50
20
   -44.00
30
  1460.00
11
   181.04
21
   -44.00
31
  1460.00
12
   181.04
22
   -44.00
32
  1498.00
13
     0.50
23
   -44.00
33
  1498.00
999
W5
0
3DFACE
8
W1
10
  -410.50
20
    46.00
30
  1500.00
11
    -1.50
21
    46.00
31
  1500.00
12
    -1.50
22
   -44.00
32
  1500.00
13
  -410.50
23
   -44.00
33
  1500.00
999
W5
0
3DFACE
8
W1
10
  -410.50
20
    46.00
30
  1538.00
11
    -1.50
21
    46.00
31
  1538.00
12
    -1.50
22
    46.00
32
  1500.00
13
  -410.50
23
    46.00
33
  1500.00
999
W5
0
3DFACE
8
W1
10
    -1.50
20
   -44.00
30
  1538.00
11
  -410.50
21
   -44.00
31
  1538.00
12
  -410.50
22
   -44.00
32
  1500.00
13
    -1.50
23
   -44.00
33
  1500.00
999
W5
0
3DFACE
8
W1
10
    -1.50
20
    46.00
30
  1498.00
11
  -182.04
21
    46.00
31
  1498.00
12
  -182.04
22
   -44.00
32
  1498.00
13
    -1.50
23
   -44.00
33
  1498.00
999
W5
0
3DFACE
8
W1
10
    -1.50
20
    46.00
30
  1460.00
11
  -182.04
21
    46.00
31
  1460.00
12
  -182.04
22
    46.00
32
  1498.00
13
    -1.50
23
    46.00
33
  1498.00
999
W5
0
3DFACE
8
W1
10
  -182.04
20
   -44.00
30
  1460.00
11
    -1.50
21
   -44.00
31
  1460.00
12
    -1.50
22
   -44.00
32
  1498.00
13
  -182.04
23
   -44.00
33
  1498.00
999
W5
0
3DFACE
8
W1
10
   409.50
20
    46.00
30
  1640.00
11
   109.59
21
    46.00
31
  1850.00
12
   109.59
22
   -44.00
32
  1850.00
13
   409.50
23
   -44.00
33
  1640.00
999
W5
0
3DFACE
8
W1
10
   387.70
20
    46.00
30
  1608.87
11
    87.79
21
    46.00
31
  1818.87
12
   109.59
22
    46.00
32
  1850.00
13
   409.50
23
    46.00
33
  1640.00
999
W5
0
3DFACE
8
W1
10
    87.79
20
   -44.00
30
  1818.87
11
   387.70
21
   -44.00
31
  1608.87
12
   409.50
22
   -44.00
32
  1640.00
13
   109.59
23
   -44.00
33
  1850.00
999
W5
0
3DFACE
8
W1
10
  -110.59
20
    46.00
30
  1850.00
11
  -410.50
21
    46.00
31
  1640.00
12
  -410.50
22
   -44.00
32
  1640.00
13
  -110.59
23
   -44.00
33
  1850.00
999
W5
0
3DFACE
8
W1
10
   -88.79
20
    46.00
30
  1818.87
11
  -388.70
21
    46.00
31
  1608.87
12
  -410.50
22
    46.00
32
  1640.00
13
  -110.59
23
    46.00
33
  1850.00
999
W5
0
3DFACE
8
W1
10
  -388.70
20
   -44.00
30
  1608.87
11
   -88.79
21
   -44.00
31
  1818.87
12
  -110.59
22
   -44.00
32
  1850.00
13
  -410.50
23
   -44.00
33
  1640.00
999
W5
0
3DFACE
8
W1
10
  -410.50
20
    46.00
30
  1640.00
11
  -410.50
21
    46.00
31
  1500.00
12
  -410.50
22
   -44.00
32
  1500.00
13
  -410.50
23
   -44.00
33
  1640.00
999
W5
0
3DFACE
8
W1
10
  -372.50
20
    46.00
30
  1640.00
11
  -372.50
21
    46.00
31
  1500.00
12
  -410.50
22
    46.00
32
  1500.00
13
  -410.50
23
    46.00
33
  1640.00
999
W5
0
3DFACE
8
W1
10
  -372.50
20
   -44.00
30
  1500.00
11
  -372.50
21
   -44.00
31
  1640.00
12
  -410.50
22
   -44.00
32
  1640.00
13
  -410.50
23
   -44.00
33
  1500.00
999
W5
0
3DFACE
8
W1
10
   409.50
20
    46.00
30
  1500.00
11
   409.50
21
    46.00
31
  1640.00
12
   409.50
22
   -44.00
32
  1640.00
13
   409.50
23
   -44.00
33
  1500.00
999
W5
0
3DFACE
8
W1
10
   371.50
20
    46.00
30
  1500.00
11
   371.50
21
    46.00
31
  1640.00
12
   409.50
22
    46.00
32
  1640.00
13
   409.50
23
    46.00
33
  1500.00
999
W5
0
3DFACE
8
W1
10
   371.50
20
   -44.00
30
  1640.00
11
   371.50
21
   -44.00
31
  1500.00
12
   409.50
22
   -44.00
32
  1500.00
13
   409.50
23
   -44.00
33
  1640.00
999
W5
0
3DFACE
8
W1
10
     0.50
20
    46.00
30
  1850.00
11
   309.50
21
    46.00
31
  1850.00
12
   309.50
22
   -44.00
32
  1850.00
13
     0.50
23
   -44.00
33
  1850.00
999
W5
0
3DFACE
8
W1
10
     0.50
20
    46.00
30
  1888.00
11
   309.50
21
    46.00
31
  1888.00
12
   309.50
22
    46.00
32
  1850.00
13
     0.50
23
    46.00
33
  1850.00
999
W5
0
3DFACE
8
W1
10
   309.50
20
   -44.00
30
  1888.00
11
     0.50
21
   -44.00
31
  1888.00
12
     0.50
22
   -44.00
32
  1850.00
13
   309.50
23
   -44.00
33
  1850.00
999
W5
0
3DFACE
8
W1
10
   112.45
20
    46.00
30
  1848.00
11
     0.50
21
    46.00
31
  1848.00
12
     0.50
22
   -44.00
32
  1848.00
13
   112.45
23
   -44.00
33
  1848.00
999
W5
0
3DFACE
8
W1
10
   112.45
20
    46.00
30
  1810.00
11
     0.50
21
    46.00
31
  1810.00
12
     0.50
22
    46.00
32
  1848.00
13
   112.45
23
    46.00
33
  1848.00
999
W5
0
3DFACE
8
W1
10
     0.50
20
   -44.00
30
  1810.00
11
   112.45
21
   -44.00
31
  1810.00
12
   112.45
22
   -44.00
32
  1848.00
13
     0.50
23
   -44.00
33
  1848.00
999
W5
0
3DFACE
8
W1
10
  -310.50
20
    46.00
30
  1850.00
11
    -1.50
21
    46.00
31
  1850.00
12
    -1.50
22
   -44.00
32
  1850.00
13
  -310.50
23
   -44.00
33
  1850.00
999
W5
0
3DFACE
8
W1
10
  -310.50
20
    46.00
30
  1888.00
11
    -1.50
21
    46.00
31
  1888.00
12
    -1.50
22
    46.00
32
  1850.00
13
  -310.50
23
    46.00
33
  1850.00
999
W5
0
3DFACE
8
W1
10
    -1.50
20
   -44.00
30
  1888.00
11
  -310.50
21
   -44.00
31
  1888.00
12
  -310.50
22
   -44.00
32
  1850.00
13
    -1.50
23
   -44.00
33
  1850.00
999
W5
0
3DFACE
8
W1
10
    -1.50
20
    46.00
30
  1848.00
11
  -113.45
21
    46.00
31
  1848.00
12
  -113.45
22
   -44.00
32
  1848.00
13
    -1.50
23
   -44.00
33
  1848.00
999
W5
0
3DFACE
8
W1
10
    -1.50
20
    46.00
30
  1810.00
11
  -113.45
21
    46.00
31
  1810.00
12
  -113.45
22
    46.00
32
  1848.00
13
    -1.50
23
    46.00
33
  1848.00
999
W5
0
3DFACE
8
W1
10
  -113.45
20
   -44.00
30
  1810.00
11
    -1.50
21
   -44.00
31
  1810.00
12
    -1.50
22
   -44.00
32
  1848.00
13
  -113.45
23
   -44.00
33
  1848.00
999
W5
0
3DFACE
8
W1
10
   309.50
20
    46.00
30
  1850.00
11
   309.50
21
    46.00
31
  1989.73
12
   309.50
22
   -44.00
32
  1989.73
13
   309.50
23
   -44.00
33
  1850.00
999
W5
0
3DFACE
8
W1
10
   271.50
20
    46.00
30
  1850.00
11
   271.50
21
    46.00
31
  1989.73
12
   309.50
22
    46.00
32
  1989.73
13
   309.50
23
    46.00
33
  1850.00
999
W5
0
3DFACE
8
W1
10
   271.50
20
   -44.00
30
  1989.73
11
   271.50
21
   -44.00
31
  1850.00
12
   309.50
22
   -44.00
32
  1850.00
13
   309.50
23
   -44.00
33
  1989.73
999
W5
0
3DFACE
8
W1
10
  -310.50
20
    46.00
30
  1990.20
11
  -310.50
21
    46.00
31
  1850.00
12
  -310.50
22
   -44.00
32
  1850.00
13
  -310.50
23
   -44.00
33
  1990.20
999
W5
0
3DFACE
8
W1
10
  -272.50
20
    46.00
30
  1990.20
11
  -272.50
21
    46.00
31
  1850.00
12
  -310.50
22
    46.00
32
  1850.00
13
  -310.50
23
    46.00
33
  1990.20
999
W5
0
3DFACE
8
W1
10
  -272.50
20
   -44.00
30
  1850.00
11
  -272.50
21
   -44.00
31
  1990.20
12
  -310.50
22
   -44.00
32
  1990.20
13
  -310.50
23
   -44.00
33
  1850.00
999
W5
0
3DFACE
8
W1
10
    -0.83
20
    46.00
30
  2207.03
11
  -310.50
21
    46.00
31
  1990.20
12
  -310.50
22
   -44.00
32
  1990.20
13
    -0.83
23
   -44.00
33
  2207.03
999
W5
0
3DFACE
8
W1
10
    20.96
20
    46.00
30
  2175.90
11
  -288.70
21
    46.00
31
  1959.07
12
  -310.50
22
    46.00
32
  1990.20
13
    -0.83
23
    46.00
33
  2207.03
999
W5
0
3DFACE
8
W1
10
  -288.70
20
   -44.00
30
  1959.07
11
    20.96
21
   -44.00
31
  2175.90
12
    -0.83
22
   -44.00
32
  2207.03
13
  -310.50
23
   -44.00
33
  1990.20
999
W5
0
3DFACE
8
W1
10
   309.50
20
    46.00
30
  1989.73
11
    -0.83
21
    46.00
31
  2207.03
12
    -0.83
22
   -44.00
32
  2207.03
13
   309.50
23
   -44.00
33
  1989.73
999
W5
0
3DFACE
8
W1
10
   287.70
20
    46.00
30
  1958.61
11
   -22.63
21
    46.00
31
  2175.90
12
    -0.83
22
    46.00
32
  2207.03
13
   309.50
23
    46.00
33
  1989.73
999
W5
0
3DFACE
8
W1
10
   -22.63
20
   -44.00
30
  2175.90
11
   287.70
21
   -44.00
31
  1958.61
12
   309.50
22
   -44.00
32
  1989.73
13
    -0.83
23
   -44.00
33
  2207.03
999
W5
0
3DFACE
8
W1
10
   201.50
20
    46.00
30
     0.00
11
   201.50
21
    46.00
31
   300.00
12
   201.50
22
   -44.00
32
   300.00
13
   201.50
23
   -44.00
33
     0.00
999
W5
0
3DFACE
8
W1
10
   163.50
20
    46.00
30
     0.00
11
   163.50
21
    46.00
31
   300.00
12
   201.50
22
    46.00
32
   300.00
13
   201.50
23
    46.00
33
     0.00
999
W5
0
3DFACE
8
W1
10
   163.50
20
   -44.00
30
   300.00
11
   163.50
21
   -44.00
31
     0.00
12
   201.50
22
   -44.00
32
     0.00
13
   201.50
23
   -44.00
33
   300.00
999
W5
0
3DFACE
8
W1
10
  -200.50
20
    46.00
30
   300.00
11
  -200.50
21
    46.00
31
     0.00
12
  -200.50
22
   -44.00
32
     0.00
13
  -200.50
23
   -44.00
33
   300.00
999
W5
0
3DFACE
8
W1
10
  -162.50
20
    46.00
30
   300.00
11
  -162.50
21
    46.00
31
     0.00
12
  -200.50
22
    46.00
32
     0.00
13
  -200.50
23
    46.00
33
   300.00
999
W5
0
3DFACE
8
W1
10
  -162.50
20
   -44.00
30
     0.00
11
  -162.50
21
   -44.00
31
   300.00
12
  -200.50
22
   -44.00
32
   300.00
13
  -200.50
23
   -44.00
33
     0.00
999
W5
0
3DFACE
8
W1
10
    46.50
20
    46.00
30
   700.00
11
    46.50
21
    46.00
31
     0.00
12
    46.50
22
   -44.00
32
     0.00
13
    46.50
23
   -44.00
33
   700.00
999
W5
0
3DFACE
8
W1
10
    84.50
20
    46.00
30
   700.00
11
    84.50
21
    46.00
31
     0.00
12
    46.50
22
    46.00
32
     0.00
13
    46.50
23
    46.00
33
   700.00
999
W5
0
3DFACE
8
W1
10
    84.50
20
   -44.00
30
     0.00
11
    84.50
21
   -44.00
31
   700.00
12
    46.50
22
   -44.00
32
   700.00
13
    46.50
23
   -44.00
33
     0.00
999
W5
0
3DFACE
8
W1
10
   -45.50
20
    46.00
30
     0.00
11
   -45.50
21
    46.00
31
   700.00
12
   -45.50
22
   -44.00
32
   700.00
13
   -45.50
23
   -44.00
33
     0.00
999
W5
0
3DFACE
8
W1
10
   -83.50
20
    46.00
30
     0.00
11
   -83.50
21
    46.00
31
   700.00
12
   -45.50
22
    46.00
32
   700.00
13
   -45.50
23
    46.00
33
     0.00
999
W5
0
3DFACE
8
W1
10
   -83.50
20
   -44.00
30
   700.00
11
   -83.50
21
   -44.00
31
     0.00
12
   -45.50
22
   -44.00
32
     0.00
13
   -45.50
23
   -44.00
33
   700.00
999
W5
0
3DFACE
8
W1
10
    -1.50
20
    46.00
30
   700.00
11
    -1.50
21
    46.00
31
  2206.57
12
    -1.50
22
   -44.00
32
  2206.57
13
    -1.50
23
   -44.00
33
   700.00
999
W5
0
3DFACE
8
W1
10
   -39.50
20
    46.00
30
   700.00
11
   -39.50
21
    46.00
31
  2206.57
12
    -1.50
22
    46.00
32
  2206.57
13
    -1.50
23
    46.00
33
   700.00
999
W5
0
3DFACE
8
W1
10
   -39.50
20
   -44.00
30
  2206.57
11
   -39.50
21
   -44.00
31
   700.00
12
    -1.50
22
   -44.00
32
   700.00
13
    -1.50
23
   -44.00
33
  2206.57
999
W5
0
3DFACE
8
W1
10
   -45.50
20
    46.00
30
   698.00
11
  -382.04
21
    46.00
31
   698.00
12
  -382.04
22
   -44.00
32
   698.00
13
   -45.50
23
   -44.00
33
   698.00
999
W5
0
3DFACE
8
W1
10
   -45.50
20
    46.00
30
   660.00
11
  -382.04
21
    46.00
31
   660.00
12
  -382.04
22
    46.00
32
   698.00
13
   -45.50
23
    46.00
33
   698.00
999
W5
0
3DFACE
8
W1
10
  -382.04
20
   -44.00
30
   660.00
11
   -45.50
21
   -44.00
31
   660.00
12
   -45.50
22
   -44.00
32
   698.00
13
  -382.04
23
   -44.00
33
   698.00
999
W5
0
3DFACE
8
W1
10
    46.50
20
    46.00
30
     0.00
11
   201.50
21
    46.00
31
     0.00
12
   201.50
22
   -44.00
32
     0.00
13
    46.50
23
   -44.00
33
     0.00
999
W5
0
3DFACE
8
W1
10
    46.50
20
    46.00
30
    38.00
11
   201.50
21
    46.00
31
    38.00
12
   201.50
22
    46.00
32
     0.00
13
    46.50
23
    46.00
33
     0.00
999
W5
0
3DFACE
8
W1
10
   201.50
20
   -44.00
30
    38.00
11
    46.50
21
   -44.00
31
    38.00
12
    46.50
22
   -44.00
32
     0.00
13
   201.50
23
   -44.00
33
     0.00
999
W5
0
TEXT
8
W1t
10
   -0.50
20
   46.00
30
 2200.00
40
120
1
W5
999
W5
0
ENDSEC
0
EOF
